<mxfile host="app.diagrams.net" modified="2023-07-30T22:49:09.071Z" agent="Mozilla/5.0 (Windows NT 10.0; Win64; x64) AppleWebKit/537.36 (KHTML, like Gecko) Chrome/114.0.0.0 Safari/537.36" etag="uqzodQag0qIcdTjWK9p3" version="21.6.6" type="device">
  <diagram id="L2CeZV6-TousAE1bqc30" name="Задача 1">
    <mxGraphModel dx="1094" dy="567" grid="1" gridSize="10" guides="1" tooltips="1" connect="1" arrows="1" fold="1" page="1" pageScale="1" pageWidth="827" pageHeight="1169" math="0" shadow="0">
      <root>
        <mxCell id="0" />
        <mxCell id="1" parent="0" />
        <mxCell id="WM5kPwlGS1hmvXEiNX4P-14" style="edgeStyle=orthogonalEdgeStyle;rounded=0;orthogonalLoop=1;jettySize=auto;html=1;exitX=0.5;exitY=1;exitDx=0;exitDy=0;entryX=0.5;entryY=0;entryDx=0;entryDy=0;" parent="1" source="WM5kPwlGS1hmvXEiNX4P-1" target="WM5kPwlGS1hmvXEiNX4P-2" edge="1">
          <mxGeometry relative="1" as="geometry" />
        </mxCell>
        <mxCell id="WM5kPwlGS1hmvXEiNX4P-1" value="Start" style="rounded=1;whiteSpace=wrap;html=1;arcSize=50;" parent="1" vertex="1">
          <mxGeometry x="80" y="30" width="120" height="40" as="geometry" />
        </mxCell>
        <mxCell id="WM5kPwlGS1hmvXEiNX4P-15" style="edgeStyle=orthogonalEdgeStyle;rounded=0;orthogonalLoop=1;jettySize=auto;html=1;exitX=0.5;exitY=1;exitDx=0;exitDy=0;entryX=0.5;entryY=0;entryDx=0;entryDy=0;" parent="1" source="yINrDqysGUPepnHuAjy2-10" target="yINrDqysGUPepnHuAjy2-12" edge="1">
          <mxGeometry relative="1" as="geometry" />
        </mxCell>
        <mxCell id="WM5kPwlGS1hmvXEiNX4P-2" value="Печать &quot;введите количество строк&quot;" style="rounded=0;whiteSpace=wrap;html=1;" parent="1" vertex="1">
          <mxGeometry x="50" y="100" width="180" height="60" as="geometry" />
        </mxCell>
        <mxCell id="yINrDqysGUPepnHuAjy2-11" value="" style="edgeStyle=orthogonalEdgeStyle;rounded=0;orthogonalLoop=1;jettySize=auto;html=1;exitX=0.5;exitY=1;exitDx=0;exitDy=0;entryX=0.5;entryY=0;entryDx=0;entryDy=0;" edge="1" parent="1" source="WM5kPwlGS1hmvXEiNX4P-2" target="yINrDqysGUPepnHuAjy2-10">
          <mxGeometry relative="1" as="geometry">
            <mxPoint x="140" y="160" as="sourcePoint" />
            <mxPoint x="140" y="500" as="targetPoint" />
          </mxGeometry>
        </mxCell>
        <mxCell id="yINrDqysGUPepnHuAjy2-10" value="Ввод пользователем числа строк в консоли" style="shape=parallelogram;perimeter=parallelogramPerimeter;whiteSpace=wrap;html=1;fixedSize=1;" vertex="1" parent="1">
          <mxGeometry x="65" y="210" width="150" height="80" as="geometry" />
        </mxCell>
        <mxCell id="yINrDqysGUPepnHuAjy2-14" value="" style="edgeStyle=orthogonalEdgeStyle;rounded=0;orthogonalLoop=1;jettySize=auto;html=1;" edge="1" parent="1" source="yINrDqysGUPepnHuAjy2-12" target="yINrDqysGUPepnHuAjy2-2">
          <mxGeometry relative="1" as="geometry" />
        </mxCell>
        <mxCell id="yINrDqysGUPepnHuAjy2-12" value="Length = int.Parse.ConsoleReadline()" style="rounded=0;whiteSpace=wrap;html=1;" vertex="1" parent="1">
          <mxGeometry x="50" y="310" width="180" height="60" as="geometry" />
        </mxCell>
        <mxCell id="yINrDqysGUPepnHuAjy2-15" value="" style="edgeStyle=orthogonalEdgeStyle;rounded=0;orthogonalLoop=1;jettySize=auto;html=1;" edge="1" parent="1" source="yINrDqysGUPepnHuAjy2-2" target="WM5kPwlGS1hmvXEiNX4P-3">
          <mxGeometry relative="1" as="geometry" />
        </mxCell>
        <mxCell id="yINrDqysGUPepnHuAjy2-2" value="Создание массива строк string numbers с количеством строк Length&lt;br&gt;i = 0" style="rounded=0;whiteSpace=wrap;html=1;" vertex="1" parent="1">
          <mxGeometry x="50" y="400" width="180" height="60" as="geometry" />
        </mxCell>
        <mxCell id="yINrDqysGUPepnHuAjy2-30" value="" style="edgeStyle=orthogonalEdgeStyle;rounded=0;orthogonalLoop=1;jettySize=auto;html=1;" edge="1" parent="1" source="WM5kPwlGS1hmvXEiNX4P-12" target="yINrDqysGUPepnHuAjy2-20">
          <mxGeometry relative="1" as="geometry" />
        </mxCell>
        <mxCell id="WM5kPwlGS1hmvXEiNX4P-12" value="Печать массива&amp;nbsp;&lt;br&gt;Печать &quot;[&quot;&lt;br&gt;i = 0" style="rounded=0;whiteSpace=wrap;html=1;" parent="1" vertex="1">
          <mxGeometry x="310" y="525" width="120" height="40" as="geometry" />
        </mxCell>
        <mxCell id="WM5kPwlGS1hmvXEiNX4P-13" value="No" style="edgeStyle=orthogonalEdgeStyle;rounded=0;orthogonalLoop=1;jettySize=auto;html=1;exitX=1;exitY=0.5;exitDx=0;exitDy=0;entryX=0;entryY=0.5;entryDx=0;entryDy=0;" parent="1" source="WM5kPwlGS1hmvXEiNX4P-3" target="WM5kPwlGS1hmvXEiNX4P-12" edge="1">
          <mxGeometry relative="1" as="geometry" />
        </mxCell>
        <mxCell id="WM5kPwlGS1hmvXEiNX4P-16" value="End" style="rounded=1;whiteSpace=wrap;html=1;arcSize=50;" parent="1" vertex="1">
          <mxGeometry x="1310" y="1305" width="120" height="40" as="geometry" />
        </mxCell>
        <mxCell id="yINrDqysGUPepnHuAjy2-18" value="" style="group" vertex="1" connectable="0" parent="1">
          <mxGeometry x="30" y="500" width="200" height="505" as="geometry" />
        </mxCell>
        <mxCell id="WM5kPwlGS1hmvXEiNX4P-3" value="i &amp;lt; numbers.length" style="rhombus;whiteSpace=wrap;html=1;" parent="yINrDqysGUPepnHuAjy2-18" vertex="1">
          <mxGeometry x="40" width="140" height="90" as="geometry" />
        </mxCell>
        <mxCell id="WM5kPwlGS1hmvXEiNX4P-7" value="Yes" style="edgeStyle=orthogonalEdgeStyle;rounded=0;orthogonalLoop=1;jettySize=auto;html=1;exitX=0.5;exitY=1;exitDx=0;exitDy=0;entryX=0.5;entryY=0;entryDx=0;entryDy=0;" parent="yINrDqysGUPepnHuAjy2-18" source="WM5kPwlGS1hmvXEiNX4P-3" edge="1">
          <mxGeometry relative="1" as="geometry">
            <mxPoint x="110" y="140" as="targetPoint" />
          </mxGeometry>
        </mxCell>
        <mxCell id="WM5kPwlGS1hmvXEiNX4P-11" style="edgeStyle=orthogonalEdgeStyle;rounded=0;orthogonalLoop=1;jettySize=auto;html=1;exitX=0;exitY=0.5;exitDx=0;exitDy=0;entryX=0;entryY=0.5;entryDx=0;entryDy=0;" parent="yINrDqysGUPepnHuAjy2-18" source="WM5kPwlGS1hmvXEiNX4P-6" target="WM5kPwlGS1hmvXEiNX4P-3" edge="1">
          <mxGeometry relative="1" as="geometry">
            <Array as="points">
              <mxPoint y="488" />
              <mxPoint y="45" />
            </Array>
            <mxPoint x="40" y="50" as="targetPoint" />
          </mxGeometry>
        </mxCell>
        <mxCell id="WM5kPwlGS1hmvXEiNX4P-6" value="i = i + 1" style="rounded=0;whiteSpace=wrap;html=1;" parent="yINrDqysGUPepnHuAjy2-18" vertex="1">
          <mxGeometry x="50" y="470" width="120" height="35" as="geometry" />
        </mxCell>
        <mxCell id="WM5kPwlGS1hmvXEiNX4P-9" style="edgeStyle=orthogonalEdgeStyle;rounded=0;orthogonalLoop=1;jettySize=auto;html=1;exitX=0.5;exitY=1;exitDx=0;exitDy=0;entryX=0.5;entryY=0;entryDx=0;entryDy=0;" parent="yINrDqysGUPepnHuAjy2-18" target="WM5kPwlGS1hmvXEiNX4P-6" edge="1">
          <mxGeometry relative="1" as="geometry">
            <mxPoint x="110" y="310" as="sourcePoint" />
          </mxGeometry>
        </mxCell>
        <mxCell id="yINrDqysGUPepnHuAjy2-3" value="Печать &quot;Введите строку&quot;&lt;br&gt;" style="rounded=0;whiteSpace=wrap;html=1;" vertex="1" parent="yINrDqysGUPepnHuAjy2-18">
          <mxGeometry x="20" y="140" width="180" height="60" as="geometry" />
        </mxCell>
        <mxCell id="yINrDqysGUPepnHuAjy2-4" value="Присвоение элементу массива введенного значения&lt;br&gt;numbers[i] =Console.Readline()" style="rounded=0;whiteSpace=wrap;html=1;" vertex="1" parent="yINrDqysGUPepnHuAjy2-18">
          <mxGeometry x="20" y="370" width="180" height="60" as="geometry" />
        </mxCell>
        <mxCell id="yINrDqysGUPepnHuAjy2-8" value="" style="edgeStyle=orthogonalEdgeStyle;rounded=0;orthogonalLoop=1;jettySize=auto;html=1;" edge="1" parent="yINrDqysGUPepnHuAjy2-18" source="yINrDqysGUPepnHuAjy2-6" target="yINrDqysGUPepnHuAjy2-4">
          <mxGeometry relative="1" as="geometry" />
        </mxCell>
        <mxCell id="yINrDqysGUPepnHuAjy2-6" value="Ввод пользователем строки в консоли" style="shape=parallelogram;perimeter=parallelogramPerimeter;whiteSpace=wrap;html=1;fixedSize=1;" vertex="1" parent="yINrDqysGUPepnHuAjy2-18">
          <mxGeometry x="35" y="250" width="150" height="80" as="geometry" />
        </mxCell>
        <mxCell id="yINrDqysGUPepnHuAjy2-7" style="edgeStyle=orthogonalEdgeStyle;rounded=0;orthogonalLoop=1;jettySize=auto;html=1;exitX=0.5;exitY=1;exitDx=0;exitDy=0;entryX=0.5;entryY=0;entryDx=0;entryDy=0;" edge="1" parent="yINrDqysGUPepnHuAjy2-18" source="yINrDqysGUPepnHuAjy2-3" target="yINrDqysGUPepnHuAjy2-6">
          <mxGeometry relative="1" as="geometry" />
        </mxCell>
        <mxCell id="yINrDqysGUPepnHuAjy2-19" value="" style="group" vertex="1" connectable="0" parent="1">
          <mxGeometry x="260" y="630" width="410" height="765" as="geometry" />
        </mxCell>
        <mxCell id="yINrDqysGUPepnHuAjy2-20" value="i &amp;lt; numbers.length - 1" style="rhombus;whiteSpace=wrap;html=1;" vertex="1" parent="yINrDqysGUPepnHuAjy2-19">
          <mxGeometry x="40" width="140" height="90" as="geometry" />
        </mxCell>
        <mxCell id="yINrDqysGUPepnHuAjy2-21" value="Yes" style="edgeStyle=orthogonalEdgeStyle;rounded=0;orthogonalLoop=1;jettySize=auto;html=1;exitX=0.5;exitY=1;exitDx=0;exitDy=0;entryX=0.5;entryY=0;entryDx=0;entryDy=0;" edge="1" parent="yINrDqysGUPepnHuAjy2-19" source="yINrDqysGUPepnHuAjy2-20">
          <mxGeometry relative="1" as="geometry">
            <mxPoint x="110" y="140" as="targetPoint" />
          </mxGeometry>
        </mxCell>
        <mxCell id="yINrDqysGUPepnHuAjy2-22" style="edgeStyle=orthogonalEdgeStyle;rounded=0;orthogonalLoop=1;jettySize=auto;html=1;exitX=0;exitY=0.5;exitDx=0;exitDy=0;entryX=0;entryY=0.5;entryDx=0;entryDy=0;" edge="1" parent="yINrDqysGUPepnHuAjy2-19" source="yINrDqysGUPepnHuAjy2-23" target="yINrDqysGUPepnHuAjy2-20">
          <mxGeometry relative="1" as="geometry">
            <Array as="points">
              <mxPoint y="268" />
              <mxPoint y="45" />
            </Array>
            <mxPoint x="40" y="50" as="targetPoint" />
          </mxGeometry>
        </mxCell>
        <mxCell id="yINrDqysGUPepnHuAjy2-23" value="i = i + 1" style="rounded=0;whiteSpace=wrap;html=1;" vertex="1" parent="yINrDqysGUPepnHuAjy2-19">
          <mxGeometry x="50" y="250" width="120" height="35" as="geometry" />
        </mxCell>
        <mxCell id="yINrDqysGUPepnHuAjy2-25" value="Печать numbers[i] + &quot;; &quot;" style="rounded=0;whiteSpace=wrap;html=1;" vertex="1" parent="yINrDqysGUPepnHuAjy2-19">
          <mxGeometry x="20" y="140" width="180" height="60" as="geometry" />
        </mxCell>
        <mxCell id="yINrDqysGUPepnHuAjy2-29" style="edgeStyle=orthogonalEdgeStyle;rounded=0;orthogonalLoop=1;jettySize=auto;html=1;exitX=0.5;exitY=1;exitDx=0;exitDy=0;entryX=0.5;entryY=0;entryDx=0;entryDy=0;" edge="1" parent="yINrDqysGUPepnHuAjy2-19" source="yINrDqysGUPepnHuAjy2-25">
          <mxGeometry relative="1" as="geometry">
            <mxPoint x="110" y="250" as="targetPoint" />
          </mxGeometry>
        </mxCell>
        <mxCell id="yINrDqysGUPepnHuAjy2-35" value="" style="group" vertex="1" connectable="0" parent="yINrDqysGUPepnHuAjy2-19">
          <mxGeometry x="210" y="260" width="200" height="505" as="geometry" />
        </mxCell>
        <mxCell id="yINrDqysGUPepnHuAjy2-36" value="i &amp;lt; numbers.length" style="rhombus;whiteSpace=wrap;html=1;" vertex="1" parent="yINrDqysGUPepnHuAjy2-35">
          <mxGeometry x="40" width="140" height="90" as="geometry" />
        </mxCell>
        <mxCell id="yINrDqysGUPepnHuAjy2-37" value="Yes" style="edgeStyle=orthogonalEdgeStyle;rounded=0;orthogonalLoop=1;jettySize=auto;html=1;exitX=0.5;exitY=1;exitDx=0;exitDy=0;entryX=0.5;entryY=0;entryDx=0;entryDy=0;" edge="1" parent="yINrDqysGUPepnHuAjy2-35" source="yINrDqysGUPepnHuAjy2-36">
          <mxGeometry relative="1" as="geometry">
            <mxPoint x="110" y="140" as="targetPoint" />
          </mxGeometry>
        </mxCell>
        <mxCell id="yINrDqysGUPepnHuAjy2-39" value="i = i + 1" style="rounded=0;whiteSpace=wrap;html=1;" vertex="1" parent="yINrDqysGUPepnHuAjy2-35">
          <mxGeometry x="50" y="390" width="120" height="35" as="geometry" />
        </mxCell>
        <mxCell id="yINrDqysGUPepnHuAjy2-40" style="edgeStyle=orthogonalEdgeStyle;rounded=0;orthogonalLoop=1;jettySize=auto;html=1;exitX=0.5;exitY=1;exitDx=0;exitDy=0;entryX=0.5;entryY=0;entryDx=0;entryDy=0;" edge="1" parent="yINrDqysGUPepnHuAjy2-35" target="yINrDqysGUPepnHuAjy2-39">
          <mxGeometry relative="1" as="geometry">
            <mxPoint x="110" y="310" as="sourcePoint" />
          </mxGeometry>
        </mxCell>
        <mxCell id="yINrDqysGUPepnHuAjy2-42" value="calc = calc + 1" style="rounded=0;whiteSpace=wrap;html=1;" vertex="1" parent="yINrDqysGUPepnHuAjy2-35">
          <mxGeometry x="20" y="290" width="180" height="60" as="geometry" />
        </mxCell>
        <mxCell id="yINrDqysGUPepnHuAjy2-45" style="edgeStyle=orthogonalEdgeStyle;rounded=0;orthogonalLoop=1;jettySize=auto;html=1;exitX=0.5;exitY=1;exitDx=0;exitDy=0;entryX=0.5;entryY=0;entryDx=0;entryDy=0;" edge="1" parent="yINrDqysGUPepnHuAjy2-35">
          <mxGeometry relative="1" as="geometry">
            <mxPoint x="110" y="200" as="sourcePoint" />
            <mxPoint x="110" y="250" as="targetPoint" />
          </mxGeometry>
        </mxCell>
        <mxCell id="yINrDqysGUPepnHuAjy2-52" value="" style="edgeStyle=orthogonalEdgeStyle;rounded=0;orthogonalLoop=1;jettySize=auto;html=1;" edge="1" parent="yINrDqysGUPepnHuAjy2-35" source="yINrDqysGUPepnHuAjy2-51" target="yINrDqysGUPepnHuAjy2-42">
          <mxGeometry relative="1" as="geometry" />
        </mxCell>
        <mxCell id="yINrDqysGUPepnHuAjy2-54" value="Yes" style="edgeLabel;html=1;align=center;verticalAlign=middle;resizable=0;points=[];" vertex="1" connectable="0" parent="yINrDqysGUPepnHuAjy2-52">
          <mxGeometry x="0.0667" y="2" relative="1" as="geometry">
            <mxPoint as="offset" />
          </mxGeometry>
        </mxCell>
        <mxCell id="yINrDqysGUPepnHuAjy2-51" value="numbers[i].Length &amp;lt;= 3" style="rhombus;whiteSpace=wrap;html=1;" vertex="1" parent="yINrDqysGUPepnHuAjy2-35">
          <mxGeometry x="40" y="140" width="140" height="90" as="geometry" />
        </mxCell>
        <mxCell id="yINrDqysGUPepnHuAjy2-38" style="edgeStyle=orthogonalEdgeStyle;rounded=0;orthogonalLoop=1;jettySize=auto;html=1;entryX=0;entryY=0.5;entryDx=0;entryDy=0;exitX=0;exitY=0.571;exitDx=0;exitDy=0;exitPerimeter=0;" edge="1" parent="yINrDqysGUPepnHuAjy2-35" source="yINrDqysGUPepnHuAjy2-39" target="yINrDqysGUPepnHuAjy2-36">
          <mxGeometry relative="1" as="geometry">
            <Array as="points">
              <mxPoint x="50" y="408" />
              <mxPoint x="-10" y="408" />
              <mxPoint x="-10" y="45" />
            </Array>
            <mxPoint x="30" y="50" as="targetPoint" />
            <mxPoint x="40" y="410" as="sourcePoint" />
          </mxGeometry>
        </mxCell>
        <mxCell id="yINrDqysGUPepnHuAjy2-49" value="" style="edgeStyle=orthogonalEdgeStyle;rounded=0;orthogonalLoop=1;jettySize=auto;html=1;" edge="1" parent="1" source="yINrDqysGUPepnHuAjy2-32" target="yINrDqysGUPepnHuAjy2-47">
          <mxGeometry relative="1" as="geometry" />
        </mxCell>
        <mxCell id="yINrDqysGUPepnHuAjy2-32" value="Печать numbers[numbers.Length -1] + &quot;]&quot;" style="rounded=0;whiteSpace=wrap;html=1;" vertex="1" parent="1">
          <mxGeometry x="490" y="645" width="180" height="60" as="geometry" />
        </mxCell>
        <mxCell id="yINrDqysGUPepnHuAjy2-33" value="" style="edgeStyle=orthogonalEdgeStyle;rounded=0;orthogonalLoop=1;jettySize=auto;html=1;" edge="1" parent="1" source="yINrDqysGUPepnHuAjy2-20" target="yINrDqysGUPepnHuAjy2-32">
          <mxGeometry relative="1" as="geometry" />
        </mxCell>
        <mxCell id="yINrDqysGUPepnHuAjy2-34" value="No" style="edgeLabel;html=1;align=center;verticalAlign=middle;resizable=0;points=[];" vertex="1" connectable="0" parent="yINrDqysGUPepnHuAjy2-33">
          <mxGeometry x="-0.04" y="-1" relative="1" as="geometry">
            <mxPoint y="-1" as="offset" />
          </mxGeometry>
        </mxCell>
        <mxCell id="yINrDqysGUPepnHuAjy2-50" value="" style="edgeStyle=orthogonalEdgeStyle;rounded=0;orthogonalLoop=1;jettySize=auto;html=1;" edge="1" parent="1" source="yINrDqysGUPepnHuAjy2-47" target="yINrDqysGUPepnHuAjy2-36">
          <mxGeometry relative="1" as="geometry" />
        </mxCell>
        <mxCell id="yINrDqysGUPepnHuAjy2-47" value="Вычисление количества элементов&amp;nbsp; нового массива calc&amp;nbsp;= 0&lt;br&gt;i = 0" style="rounded=0;whiteSpace=wrap;html=1;" vertex="1" parent="1">
          <mxGeometry x="495" y="750" width="170" height="70" as="geometry" />
        </mxCell>
        <mxCell id="yINrDqysGUPepnHuAjy2-55" style="edgeStyle=orthogonalEdgeStyle;rounded=0;orthogonalLoop=1;jettySize=auto;html=1;exitX=0.957;exitY=0.478;exitDx=0;exitDy=0;exitPerimeter=0;" edge="1" parent="1" source="yINrDqysGUPepnHuAjy2-51">
          <mxGeometry relative="1" as="geometry">
            <mxPoint x="740" y="1110" as="sourcePoint" />
            <mxPoint x="640" y="1300" as="targetPoint" />
            <Array as="points">
              <mxPoint x="690" y="1073" />
              <mxPoint x="690" y="1300" />
            </Array>
          </mxGeometry>
        </mxCell>
        <mxCell id="yINrDqysGUPepnHuAjy2-56" value="No" style="edgeLabel;html=1;align=center;verticalAlign=middle;resizable=0;points=[];" vertex="1" connectable="0" parent="yINrDqysGUPepnHuAjy2-55">
          <mxGeometry x="-0.8517" y="-1" relative="1" as="geometry">
            <mxPoint as="offset" />
          </mxGeometry>
        </mxCell>
        <mxCell id="yINrDqysGUPepnHuAjy2-61" value="" style="edgeStyle=orthogonalEdgeStyle;rounded=0;orthogonalLoop=1;jettySize=auto;html=1;" edge="1" parent="1" source="yINrDqysGUPepnHuAjy2-57" target="yINrDqysGUPepnHuAjy2-60">
          <mxGeometry relative="1" as="geometry" />
        </mxCell>
        <mxCell id="yINrDqysGUPepnHuAjy2-57" value="Печать &quot;Количество строк меньше трех равно&quot;&lt;br&gt;calc" style="rounded=0;whiteSpace=wrap;html=1;" vertex="1" parent="1">
          <mxGeometry x="760" y="905" width="180" height="60" as="geometry" />
        </mxCell>
        <mxCell id="yINrDqysGUPepnHuAjy2-58" style="edgeStyle=orthogonalEdgeStyle;rounded=0;orthogonalLoop=1;jettySize=auto;html=1;entryX=0;entryY=0.5;entryDx=0;entryDy=0;" edge="1" parent="1" source="yINrDqysGUPepnHuAjy2-36" target="yINrDqysGUPepnHuAjy2-57">
          <mxGeometry relative="1" as="geometry" />
        </mxCell>
        <mxCell id="yINrDqysGUPepnHuAjy2-59" value="No" style="edgeLabel;html=1;align=center;verticalAlign=middle;resizable=0;points=[];" vertex="1" connectable="0" parent="yINrDqysGUPepnHuAjy2-58">
          <mxGeometry x="-0.1" y="-1" relative="1" as="geometry">
            <mxPoint as="offset" />
          </mxGeometry>
        </mxCell>
        <mxCell id="yINrDqysGUPepnHuAjy2-87" style="edgeStyle=orthogonalEdgeStyle;rounded=0;orthogonalLoop=1;jettySize=auto;html=1;exitX=0.5;exitY=1;exitDx=0;exitDy=0;entryX=0.5;entryY=0;entryDx=0;entryDy=0;" edge="1" parent="1" source="yINrDqysGUPepnHuAjy2-60" target="yINrDqysGUPepnHuAjy2-63">
          <mxGeometry relative="1" as="geometry">
            <mxPoint x="840" y="1150" as="targetPoint" />
            <Array as="points">
              <mxPoint x="850" y="1130" />
              <mxPoint x="850" y="1130" />
            </Array>
          </mxGeometry>
        </mxCell>
        <mxCell id="yINrDqysGUPepnHuAjy2-60" value="Создание массива строк string newnumbers с количеством строк calc&lt;br&gt;i = 0" style="rounded=0;whiteSpace=wrap;html=1;" vertex="1" parent="1">
          <mxGeometry x="760" y="1030" width="180" height="60" as="geometry" />
        </mxCell>
        <mxCell id="yINrDqysGUPepnHuAjy2-62" value="" style="group" vertex="1" connectable="0" parent="1">
          <mxGeometry x="740" y="1150" width="200" height="620" as="geometry" />
        </mxCell>
        <mxCell id="yINrDqysGUPepnHuAjy2-74" style="edgeStyle=orthogonalEdgeStyle;rounded=0;orthogonalLoop=1;jettySize=auto;html=1;exitX=0.5;exitY=1;exitDx=0;exitDy=0;entryX=0.5;entryY=0;entryDx=0;entryDy=0;" edge="1" parent="yINrDqysGUPepnHuAjy2-62" source="yINrDqysGUPepnHuAjy2-63" target="yINrDqysGUPepnHuAjy2-73">
          <mxGeometry relative="1" as="geometry" />
        </mxCell>
        <mxCell id="yINrDqysGUPepnHuAjy2-63" value="i &amp;lt; newnumbers.length" style="rhombus;whiteSpace=wrap;html=1;" vertex="1" parent="yINrDqysGUPepnHuAjy2-62">
          <mxGeometry x="40" width="140" height="90" as="geometry" />
        </mxCell>
        <mxCell id="yINrDqysGUPepnHuAjy2-64" value="Yes" style="edgeStyle=orthogonalEdgeStyle;rounded=0;orthogonalLoop=1;jettySize=auto;html=1;exitX=0.5;exitY=1;exitDx=0;exitDy=0;entryX=0.5;entryY=0;entryDx=0;entryDy=0;" edge="1" parent="yINrDqysGUPepnHuAjy2-62" source="yINrDqysGUPepnHuAjy2-63">
          <mxGeometry relative="1" as="geometry">
            <mxPoint x="110" y="140" as="targetPoint" />
          </mxGeometry>
        </mxCell>
        <mxCell id="yINrDqysGUPepnHuAjy2-68" style="edgeStyle=orthogonalEdgeStyle;rounded=0;orthogonalLoop=1;jettySize=auto;html=1;exitX=0.5;exitY=1;exitDx=0;exitDy=0;entryX=0.5;entryY=0;entryDx=0;entryDy=0;" edge="1" parent="yINrDqysGUPepnHuAjy2-62">
          <mxGeometry relative="1" as="geometry">
            <mxPoint x="110" y="200" as="sourcePoint" />
            <mxPoint x="110" y="250" as="targetPoint" />
          </mxGeometry>
        </mxCell>
        <mxCell id="yINrDqysGUPepnHuAjy2-80" value="" style="edgeStyle=orthogonalEdgeStyle;rounded=0;orthogonalLoop=1;jettySize=auto;html=1;" edge="1" parent="yINrDqysGUPepnHuAjy2-62" source="yINrDqysGUPepnHuAjy2-71" target="yINrDqysGUPepnHuAjy2-76">
          <mxGeometry relative="1" as="geometry" />
        </mxCell>
        <mxCell id="yINrDqysGUPepnHuAjy2-91" value="Yes" style="edgeLabel;html=1;align=center;verticalAlign=middle;resizable=0;points=[];" vertex="1" connectable="0" parent="yINrDqysGUPepnHuAjy2-80">
          <mxGeometry x="-0.3647" relative="1" as="geometry">
            <mxPoint as="offset" />
          </mxGeometry>
        </mxCell>
        <mxCell id="yINrDqysGUPepnHuAjy2-71" value="j &amp;lt; numbers.Length" style="rhombus;whiteSpace=wrap;html=1;" vertex="1" parent="yINrDqysGUPepnHuAjy2-62">
          <mxGeometry x="40" y="207.5" width="140" height="90" as="geometry" />
        </mxCell>
        <mxCell id="yINrDqysGUPepnHuAjy2-75" style="edgeStyle=orthogonalEdgeStyle;rounded=0;orthogonalLoop=1;jettySize=auto;html=1;exitX=0.5;exitY=1;exitDx=0;exitDy=0;" edge="1" parent="yINrDqysGUPepnHuAjy2-62" source="yINrDqysGUPepnHuAjy2-73">
          <mxGeometry relative="1" as="geometry">
            <mxPoint x="110" y="210" as="targetPoint" />
          </mxGeometry>
        </mxCell>
        <mxCell id="yINrDqysGUPepnHuAjy2-73" value="j = 0" style="rounded=0;whiteSpace=wrap;html=1;" vertex="1" parent="yINrDqysGUPepnHuAjy2-62">
          <mxGeometry x="20" y="130" width="180" height="60" as="geometry" />
        </mxCell>
        <mxCell id="yINrDqysGUPepnHuAjy2-76" value="numbers[j].Length &amp;lt;= 3" style="rhombus;whiteSpace=wrap;html=1;" vertex="1" parent="yINrDqysGUPepnHuAjy2-62">
          <mxGeometry x="40" y="340" width="140" height="90" as="geometry" />
        </mxCell>
        <mxCell id="yINrDqysGUPepnHuAjy2-79" value="i = i+1" style="rounded=0;whiteSpace=wrap;html=1;" vertex="1" parent="yINrDqysGUPepnHuAjy2-62">
          <mxGeometry x="20" y="560" width="180" height="60" as="geometry" />
        </mxCell>
        <mxCell id="yINrDqysGUPepnHuAjy2-65" value="i = i + 1" style="rounded=0;whiteSpace=wrap;html=1;" vertex="1" parent="1">
          <mxGeometry x="790" y="1880" width="120" height="35" as="geometry" />
        </mxCell>
        <mxCell id="yINrDqysGUPepnHuAjy2-72" style="edgeStyle=orthogonalEdgeStyle;rounded=0;orthogonalLoop=1;jettySize=auto;html=1;entryX=0;entryY=0.5;entryDx=0;entryDy=0;exitX=0;exitY=0.571;exitDx=0;exitDy=0;exitPerimeter=0;" edge="1" parent="1" source="yINrDqysGUPepnHuAjy2-65" target="yINrDqysGUPepnHuAjy2-63">
          <mxGeometry relative="1" as="geometry">
            <Array as="points">
              <mxPoint x="730" y="1900" />
              <mxPoint x="730" y="1195" />
            </Array>
            <mxPoint x="770" y="1200" as="targetPoint" />
            <mxPoint x="780" y="1560" as="sourcePoint" />
          </mxGeometry>
        </mxCell>
        <mxCell id="yINrDqysGUPepnHuAjy2-85" style="edgeStyle=orthogonalEdgeStyle;rounded=0;orthogonalLoop=1;jettySize=auto;html=1;exitX=0.5;exitY=1;exitDx=0;exitDy=0;entryX=0.5;entryY=0;entryDx=0;entryDy=0;" edge="1" parent="1" source="yINrDqysGUPepnHuAjy2-67" target="yINrDqysGUPepnHuAjy2-79">
          <mxGeometry relative="1" as="geometry" />
        </mxCell>
        <mxCell id="yINrDqysGUPepnHuAjy2-67" value="newnumbers[i] = numbers[j]" style="rounded=0;whiteSpace=wrap;html=1;" vertex="1" parent="1">
          <mxGeometry x="760" y="1620" width="180" height="60" as="geometry" />
        </mxCell>
        <mxCell id="yINrDqysGUPepnHuAjy2-66" style="edgeStyle=orthogonalEdgeStyle;rounded=0;orthogonalLoop=1;jettySize=auto;html=1;exitX=0.5;exitY=1;exitDx=0;exitDy=0;entryX=0.5;entryY=0;entryDx=0;entryDy=0;" edge="1" parent="1" target="yINrDqysGUPepnHuAjy2-65" source="yINrDqysGUPepnHuAjy2-77">
          <mxGeometry relative="1" as="geometry">
            <mxPoint x="850" y="1460" as="sourcePoint" />
          </mxGeometry>
        </mxCell>
        <mxCell id="yINrDqysGUPepnHuAjy2-86" style="edgeStyle=orthogonalEdgeStyle;rounded=0;orthogonalLoop=1;jettySize=auto;html=1;exitX=0;exitY=0.5;exitDx=0;exitDy=0;" edge="1" parent="1" source="yINrDqysGUPepnHuAjy2-77">
          <mxGeometry relative="1" as="geometry">
            <mxPoint x="780" y="1400" as="targetPoint" />
            <Array as="points">
              <mxPoint x="740" y="1820" />
              <mxPoint x="740" y="1400" />
            </Array>
          </mxGeometry>
        </mxCell>
        <mxCell id="yINrDqysGUPepnHuAjy2-77" value="j = j+1" style="rounded=0;whiteSpace=wrap;html=1;" vertex="1" parent="1">
          <mxGeometry x="760" y="1790" width="180" height="60" as="geometry" />
        </mxCell>
        <mxCell id="yINrDqysGUPepnHuAjy2-81" style="edgeStyle=orthogonalEdgeStyle;rounded=0;orthogonalLoop=1;jettySize=auto;html=1;exitX=0.5;exitY=1;exitDx=0;exitDy=0;entryX=0.5;entryY=0;entryDx=0;entryDy=0;" edge="1" parent="1" source="yINrDqysGUPepnHuAjy2-76" target="yINrDqysGUPepnHuAjy2-67">
          <mxGeometry relative="1" as="geometry" />
        </mxCell>
        <mxCell id="yINrDqysGUPepnHuAjy2-88" style="edgeStyle=orthogonalEdgeStyle;rounded=0;orthogonalLoop=1;jettySize=auto;html=1;exitX=1;exitY=0.5;exitDx=0;exitDy=0;entryX=1;entryY=0.5;entryDx=0;entryDy=0;" edge="1" parent="1" source="yINrDqysGUPepnHuAjy2-76" target="yINrDqysGUPepnHuAjy2-77">
          <mxGeometry relative="1" as="geometry" />
        </mxCell>
        <mxCell id="yINrDqysGUPepnHuAjy2-92" value="No" style="edgeLabel;html=1;align=center;verticalAlign=middle;resizable=0;points=[];" vertex="1" connectable="0" parent="yINrDqysGUPepnHuAjy2-88">
          <mxGeometry x="-0.8957" y="1" relative="1" as="geometry">
            <mxPoint as="offset" />
          </mxGeometry>
        </mxCell>
        <mxCell id="yINrDqysGUPepnHuAjy2-89" style="edgeStyle=orthogonalEdgeStyle;rounded=0;orthogonalLoop=1;jettySize=auto;html=1;exitX=0.5;exitY=1;exitDx=0;exitDy=0;entryX=0.5;entryY=0;entryDx=0;entryDy=0;" edge="1" parent="1" source="yINrDqysGUPepnHuAjy2-79" target="yINrDqysGUPepnHuAjy2-77">
          <mxGeometry relative="1" as="geometry" />
        </mxCell>
        <mxCell id="yINrDqysGUPepnHuAjy2-90" style="edgeStyle=orthogonalEdgeStyle;rounded=0;orthogonalLoop=1;jettySize=auto;html=1;exitX=1;exitY=0.5;exitDx=0;exitDy=0;entryX=1;entryY=0.5;entryDx=0;entryDy=0;" edge="1" parent="1" source="yINrDqysGUPepnHuAjy2-71" target="yINrDqysGUPepnHuAjy2-65">
          <mxGeometry relative="1" as="geometry">
            <Array as="points">
              <mxPoint x="990" y="1403" />
              <mxPoint x="990" y="1898" />
            </Array>
          </mxGeometry>
        </mxCell>
        <mxCell id="yINrDqysGUPepnHuAjy2-93" value="No" style="edgeLabel;html=1;align=center;verticalAlign=middle;resizable=0;points=[];" vertex="1" connectable="0" parent="yINrDqysGUPepnHuAjy2-90">
          <mxGeometry x="-0.9163" y="-2" relative="1" as="geometry">
            <mxPoint y="1" as="offset" />
          </mxGeometry>
        </mxCell>
        <mxCell id="yINrDqysGUPepnHuAjy2-102" value="" style="edgeStyle=orthogonalEdgeStyle;rounded=0;orthogonalLoop=1;jettySize=auto;html=1;" edge="1" parent="1" source="yINrDqysGUPepnHuAjy2-94" target="yINrDqysGUPepnHuAjy2-95">
          <mxGeometry relative="1" as="geometry" />
        </mxCell>
        <mxCell id="yINrDqysGUPepnHuAjy2-94" value="Печать получившегося массива newnumbers&lt;br&gt;j =0" style="rounded=0;whiteSpace=wrap;html=1;" vertex="1" parent="1">
          <mxGeometry x="1058" y="1169" width="180" height="60" as="geometry" />
        </mxCell>
        <mxCell id="yINrDqysGUPepnHuAjy2-103" value="" style="edgeStyle=orthogonalEdgeStyle;rounded=0;orthogonalLoop=1;jettySize=auto;html=1;" edge="1" parent="1" source="yINrDqysGUPepnHuAjy2-95" target="WM5kPwlGS1hmvXEiNX4P-16">
          <mxGeometry relative="1" as="geometry" />
        </mxCell>
        <mxCell id="yINrDqysGUPepnHuAjy2-95" value="j &amp;lt; newnumbers.length" style="rhombus;whiteSpace=wrap;html=1;" vertex="1" parent="1">
          <mxGeometry x="1078" y="1280" width="140" height="90" as="geometry" />
        </mxCell>
        <mxCell id="yINrDqysGUPepnHuAjy2-96" value="Yes" style="edgeStyle=orthogonalEdgeStyle;rounded=0;orthogonalLoop=1;jettySize=auto;html=1;exitX=0.5;exitY=1;exitDx=0;exitDy=0;entryX=0.5;entryY=0;entryDx=0;entryDy=0;" edge="1" parent="1" source="yINrDqysGUPepnHuAjy2-95">
          <mxGeometry relative="1" as="geometry">
            <mxPoint x="1148" y="1420" as="targetPoint" />
          </mxGeometry>
        </mxCell>
        <mxCell id="yINrDqysGUPepnHuAjy2-97" style="edgeStyle=orthogonalEdgeStyle;rounded=0;orthogonalLoop=1;jettySize=auto;html=1;exitX=0;exitY=0.5;exitDx=0;exitDy=0;entryX=0;entryY=0.5;entryDx=0;entryDy=0;" edge="1" parent="1" source="yINrDqysGUPepnHuAjy2-98" target="yINrDqysGUPepnHuAjy2-95">
          <mxGeometry relative="1" as="geometry">
            <Array as="points">
              <mxPoint x="1038" y="1548" />
              <mxPoint x="1038" y="1325" />
            </Array>
            <mxPoint x="1078" y="1330" as="targetPoint" />
          </mxGeometry>
        </mxCell>
        <mxCell id="yINrDqysGUPepnHuAjy2-98" value="j = j + 1" style="rounded=0;whiteSpace=wrap;html=1;" vertex="1" parent="1">
          <mxGeometry x="1088" y="1530" width="120" height="35" as="geometry" />
        </mxCell>
        <mxCell id="yINrDqysGUPepnHuAjy2-99" value="Печать newnumbers[j] + &quot;&amp;nbsp; &quot;" style="rounded=0;whiteSpace=wrap;html=1;" vertex="1" parent="1">
          <mxGeometry x="1058" y="1420" width="180" height="60" as="geometry" />
        </mxCell>
        <mxCell id="yINrDqysGUPepnHuAjy2-100" style="edgeStyle=orthogonalEdgeStyle;rounded=0;orthogonalLoop=1;jettySize=auto;html=1;exitX=0.5;exitY=1;exitDx=0;exitDy=0;entryX=0.5;entryY=0;entryDx=0;entryDy=0;" edge="1" parent="1" source="yINrDqysGUPepnHuAjy2-99">
          <mxGeometry relative="1" as="geometry">
            <mxPoint x="1148" y="1530" as="targetPoint" />
          </mxGeometry>
        </mxCell>
        <mxCell id="yINrDqysGUPepnHuAjy2-101" value="No" style="edgeLabel;html=1;align=center;verticalAlign=middle;resizable=0;points=[];" vertex="1" connectable="0" parent="1">
          <mxGeometry x="1242" y="1325" as="geometry" />
        </mxCell>
        <mxCell id="yINrDqysGUPepnHuAjy2-104" style="edgeStyle=orthogonalEdgeStyle;rounded=0;orthogonalLoop=1;jettySize=auto;html=1;entryX=0.011;entryY=0.4;entryDx=0;entryDy=0;entryPerimeter=0;exitX=1;exitY=0.5;exitDx=0;exitDy=0;" edge="1" parent="1" source="yINrDqysGUPepnHuAjy2-63" target="yINrDqysGUPepnHuAjy2-94">
          <mxGeometry relative="1" as="geometry">
            <mxPoint x="940" y="1195" as="sourcePoint" />
          </mxGeometry>
        </mxCell>
      </root>
    </mxGraphModel>
  </diagram>
</mxfile>
